<?xml version="1.0" standalone="no"?>
<!DOCTYPE svg PUBLIC "-//W3C//DTD SVG 20010904//EN"
 "http://www.w3.org/TR/2001/REC-SVG-20010904/DTD/svg10.dtd">
<svg version="1.0" xmlns="http://www.w3.org/2000/svg"
 width="472.000000pt" height="472.000000pt" viewBox="0 0 472.000000 472.000000"
 preserveAspectRatio="xMidYMid meet">
<metadata>
Created by potrace 1.14, written by Peter Selinger 2001-2017
</metadata>
<g transform="translate(0.000000,472.000000) scale(0.100000,-0.100000)"
fill="#000000" stroke="none">
<path d="M2605 3948 c-115 -5 -266 -7 -335 -6 -69 2 -233 3 -365 2 l-240 0
-138 -38 c-122 -33 -145 -43 -205 -87 -37 -28 -72 -57 -78 -65 -11 -13 -97
-54 -115 -54 -24 0 -110 -47 -174 -95 -82 -63 -166 -148 -220 -225 -51 -71
-103 -134 -191 -229 -39 -42 -80 -90 -92 -108 -45 -64 -102 -189 -128 -277
-15 -50 -28 -93 -30 -95 -1 -1 -21 12 -44 30 -37 30 -49 34 -99 34 -67 0 -109
-25 -136 -81 -27 -58 -17 -118 33 -190 71 -100 161 -217 202 -259 l39 -40 4
-275 c4 -297 2 -286 70 -460 44 -114 163 -304 228 -367 32 -30 142 -93 164
-93 6 0 26 -11 45 -24 61 -41 315 -125 460 -152 l135 -26 645 7 c567 5 664 8
805 26 308 40 570 140 759 292 113 92 301 283 395 402 120 153 161 257 161
410 l0 73 58 23 c58 24 227 131 340 218 87 66 154 171 160 252 8 108 -48 174
-148 174 -67 0 -109 -26 -134 -82 -30 -66 -40 -80 -91 -120 -58 -45 -171 -123
-179 -123 -4 0 -6 47 -6 104 0 112 -30 426 -55 571 -8 50 -22 131 -30 180 -25
152 -48 218 -108 309 -46 69 -76 99 -169 173 -111 88 -253 186 -333 231 -111
61 -100 60 -385 65 -146 2 -359 0 -475 -5z"/>
</g>
</svg>
